<svg xmlns="http://www.w3.org/2000/svg" viewBox="0 0 420 300" role="img" aria-label="住宅と工具のイラスト">
<g fill="none" stroke="#e3e6ec" stroke-width="3" stroke-linejoin="round" stroke-linecap="round">
<path d="M60 150 170 64l110 86"/><path d="M82 134v118h176V134"/><path d="M226 92V62h24v48"/>
<rect x="104" y="158" width="44" height="40"/><path d="M126 158v40M104 178h44"/>
<path d="M176 252v-74h50v74"/>
<path d="M30 252h360"/>
</g>
<circle cx="214" cy="216" r="3.5" fill="#e3e6ec"/>
<g fill="none" stroke="#c9733f" stroke-width="3.5" stroke-linecap="round" stroke-linejoin="round">
<path d="M300 252V160"/><path d="M300 160l40 0"/><path d="M300 190l40 0"/><path d="M300 220l40 0"/><path d="M340 252V160"/>
<path d="M330 110l40 40"/><path d="M362 102a14 14 0 0 0-18 18l-14 14 8 8 14-14a14 14 0 0 0 18-18l-8 8-6-2-2-6z"/>
</g>
<path d="M104 98h22v-10" fill="none" stroke="#c9733f" stroke-width="3.5" stroke-linecap="round"/>
</svg>
